<svg xmlns="http://www.w3.org/2000/svg" xml:space="preserve" width="43.321" height="43.321" fill-rule="evenodd" stroke-linejoin="round" stroke-miterlimit="2" clip-rule="evenodd"><g style="stroke:#4063d8"><path d="M-3.146 10.072V-2.763H9.69" style="opacity:1;fill:none;stroke:#4063d8;stroke-width:3;stroke-linecap:square;stroke-linejoin:miter;stroke-dasharray:none" transform="translate(4.646 4.263)"/><path d="M37.176 24.724v12.835H24.34M37.176 10.072V-2.763H24.34M-3.146 24.724v12.835H9.69" style="fill:none;stroke:#4063d8;stroke-width:3;stroke-linecap:square;stroke-linejoin:miter;stroke-dasharray:none" transform="translate(4.646 4.263)"/></g><g style="fill:#9558b2"><path d="M12.721 18.816c-1.132 0-2.063.931-2.063 2.063v11.003a3.45 3.45 0 0 0 3.438 3.439h15.128a3.45 3.45 0 0 0 3.44-3.44V20.88c0-1.132-.932-2.063-2.064-2.063h-4.126a5.508 5.508 0 0 0-4.813 2.845 5.508 5.508 0 0 0-4.814-2.845zm13.754 1.376h4.126c.389 0 .688.3.688.687v11.003a2.053 2.053 0 0 1-2.063 2.063h-6.877v-9.628a4.115 4.115 0 0 1 4.126-4.126zm-11.69 2.75h2.75a.687.687 0 1 1 0 1.375h-2.75a.687.687 0 1 1 0-1.375m0 3.44h2.75a.687.687 0 1 1 0 1.374h-2.75a.688.688 0 1 1 0-1.376zm0 3.437h2.75a.687.687 0 1 1 0 1.376h-2.75a.688.688 0 1 1 0-1.376" style="fill:#9558b2;stroke-width:.330088" transform="translate(0 -.457)"/><path d="M25.787 29.819a.687.687 0 1 0 0 1.376h2.75a.687.687 0 0 0 0-1.376zM25.787 26.38a.687.687 0 0 0 0 1.376h2.75a.686.686 0 0 0 .486-1.174.687.687 0 0 0-.486-.202zM25.787 22.942a.686.686 0 1 0 0 1.375h2.75a.686.686 0 0 0 .486-1.174.686.686 0 0 0-.486-.2z" style="fill:#9558b2;stroke-width:.330088" transform="translate(0 -.457)"/></g><path d="M21.66 7.261a5.513 5.513 0 0 0-5.501 5.502 5.513 5.513 0 0 0 5.502 5.502 5.513 5.513 0 0 0 5.502-5.502 5.513 5.513 0 0 0-5.502-5.502" style="fill:#9558b2;stroke-width:.330088" transform="translate(0 .094)"/></svg>